<svg width="50" height="50" viewBox="0 0 50 50" fill="none" xmlns="http://www.w3.org/2000/svg">
<rect width="50" height="50" rx="25" fill="#4CB050"/>
<path d="M15.8172 36.264C13.4412 36.264 11.5712 35.747 10.2072 34.713C8.84323 33.657 8.16123 32.249 8.16123 30.489V29.334C8.16123 29.114 8.27123 29.004 8.49123 29.004H8.75523C8.97523 29.004 9.08523 29.114 9.08523 29.334V30.423C9.08523 31.919 9.69023 33.118 10.9002 34.02C12.1102 34.9 13.7712 35.34 15.8832 35.34C17.8852 35.34 19.4142 34.922 20.4702 34.086C21.5482 33.25 22.0872 32.095 22.0872 30.621C22.0872 29.719 21.8672 28.938 21.4272 28.278C20.9872 27.618 20.2832 26.991 19.3152 26.397C18.3692 25.803 17.0272 25.132 15.2892 24.384C13.5512 23.636 12.2532 23.02 11.3952 22.536C10.5592 22.052 9.89923 21.458 9.41523 20.754C8.93123 20.05 8.68923 19.148 8.68923 18.048C8.68923 16.288 9.27223 14.946 10.4382 14.022C11.6042 13.098 13.2762 12.636 15.4542 12.636C17.8082 12.636 19.6232 13.164 20.8992 14.22C22.1972 15.254 22.8462 16.662 22.8462 18.444V19.236C22.8462 19.456 22.7362 19.566 22.5162 19.566H22.1862C21.9662 19.566 21.8562 19.456 21.8562 19.236V18.51C21.8562 17.014 21.2842 15.815 20.1402 14.913C19.0182 14.011 17.4232 13.56 15.3552 13.56C13.5072 13.56 12.0882 13.934 11.0982 14.682C10.1302 15.43 9.64623 16.53 9.64623 17.982C9.64623 18.928 9.86623 19.709 10.3062 20.325C10.7462 20.919 11.3622 21.436 12.1542 21.876C12.9462 22.294 14.2002 22.855 15.9162 23.559C18.4242 24.615 20.2392 25.649 21.3612 26.661C22.5052 27.673 23.0772 28.971 23.0772 30.555C23.0772 32.293 22.4392 33.679 21.1632 34.713C19.9092 35.747 18.1272 36.264 15.8172 36.264ZM29.2524 36C29.0324 36 28.9224 35.89 28.9224 35.67V13.23C28.9224 13.01 29.0324 12.9 29.2524 12.9H29.5824C29.8024 12.9 29.9124 13.01 29.9124 13.23V34.944C29.9124 35.032 29.9564 35.076 30.0444 35.076H42.1554C42.3754 35.076 42.4854 35.186 42.4854 35.406V35.67C42.4854 35.89 42.3754 36 42.1554 36H29.2524Z" fill="white"/>
</svg>
